<svg xmlns="http://www.w3.org/2000/svg" viewBox="0 0 430.33 250"><defs><style>.cls-1{isolation:isolate;}.cls-18,.cls-2,.cls-22{fill:#603b32;}.cls-23,.cls-24,.cls-3,.cls-31{fill:#3d504a;}.cls-4{fill:#3a4d39;}.cls-5{fill:#5aa56b;}.cls-13,.cls-27,.cls-28,.cls-29,.cls-6{fill:#d1d4d0;}.cls-16,.cls-20,.cls-7{fill:#e0e4e5;}.cls-10,.cls-8{fill:#c19374;}.cls-11,.cls-17,.cls-35,.cls-9{fill:#94633a;}.cls-10{opacity:0.66;}.cls-10,.cls-18,.cls-20,.cls-26,.cls-27{mix-blend-mode:screen;}.cls-11{opacity:0.38;}.cls-11,.cls-13,.cls-16,.cls-17,.cls-22,.cls-23,.cls-24,.cls-25,.cls-28,.cls-29,.cls-30,.cls-31,.cls-32,.cls-33,.cls-34,.cls-35,.cls-36,.cls-37{mix-blend-mode:multiply;}.cls-12,.cls-26,.cls-32,.cls-34{fill:#8db5b3;}.cls-13{opacity:0.33;}.cls-14,.cls-30,.cls-36,.cls-37{fill:#e2b795;}.cls-15{fill:#373f48;}.cls-17,.cls-23{opacity:0.3;}.cls-18{opacity:0.62;}.cls-19{fill:#21262c;}.cls-21,.cls-25,.cls-33{fill:#f4aa82;}.cls-22{opacity:0.2;}.cls-24{opacity:0.1;}.cls-25{opacity:0.32;}.cls-26{opacity:0.48;}.cls-27{opacity:0.23;}.cls-29{opacity:0.47;}.cls-30{opacity:0.68;}.cls-31{opacity:0.26;}.cls-32{opacity:0.77;}.cls-33{opacity:0.67;}.cls-34{opacity:0.73;}.cls-35{opacity:0.34;}.cls-36{opacity:0.14;}.cls-37{opacity:0.46;}</style></defs><title>bg</title><g class="cls-1"><g id="Layer_1" data-name="Layer 1"><ellipse class="cls-2" cx="215.17" cy="206.5" rx="215.17" ry="43.51"/><polygon class="cls-3" points="199.34 67.23 185.6 66.68 133.26 69.35 141.95 70.36 199.34 67.23"/><path class="cls-4" d="M225.36,112.35s8.93,1,5.75,2.92-9.31-.44-10.2-0.48-3.79-5.16-.73-5.68C224.66,108.35,226.09,109,225.36,112.35Z" transform="translate(-34.83 -75)"/><path class="cls-5" d="M180.51,151.34l-0.86-.07c0-.21,1.73-21,1.19-26l0.86-.09C182.25,130.22,180.59,150.49,180.51,151.34Z" transform="translate(-34.83 -75)"/><path class="cls-5" d="M180.85,125.23s10.4-6,15-2.59-2.88,1.78-5.49,3.13S172.47,128.54,180.85,125.23Z" transform="translate(-34.83 -75)"/><path class="cls-5" d="M181.48,142.53l-0.76-.4c1.87-3.59,7.44-8.27,7.68-8.47l0.55,0.66C188.89,134.38,183.28,139.09,181.48,142.53Z" transform="translate(-34.83 -75)"/><path class="cls-4" d="M181.46,129.7s4.61,1.1,4.25,2.22-9.95-2.11-10.84-1.08-1.45-3.16-1.13-4.58,6.28,1.18,6.24,3.11Z" transform="translate(-34.83 -75)"/><path class="cls-4" d="M171.1,151.5l-1-.36c4-11-.22-28.56-0.27-28.74l1-.25C171,122.89,175.21,140.22,171.1,151.5Z" transform="translate(-34.83 -75)"/><path class="cls-4" d="M171.32,122.25s8.93,1,5.75,2.92-9.31-.44-10.2-0.48-3.79-5.16-.73-5.68C170.62,118.25,172.05,118.93,171.32,122.25Z" transform="translate(-34.83 -75)"/><path class="cls-4" d="M219.17,141.09s8.93,1,5.75,2.92-9.31-.44-10.2-0.48-3.78-5.16-.73-5.68C218.47,137.1,219.9,137.77,219.17,141.09Z" transform="translate(-34.83 -75)"/><path class="cls-4" d="M186,144.74l-0.63-.59c4.24-4.52,6.32-13.85,6.34-13.95l0.84,0.18C192.51,130.78,190.44,140,186,144.74Z" transform="translate(-34.83 -75)"/><path class="cls-4" d="M192.27,130.12s7.77-1.43,6.76,1.59c-1.12,3.33-5.46,3.25-5.46,3.25s-7.76-5.61-7.51-7.58S192.27,130.12,192.27,130.12Z" transform="translate(-34.83 -75)"/><path class="cls-5" d="M210.54,150.07l-0.86-.34c1.53-3.83,1.89-17.32,1.9-17.45l0.93,0C212.49,132.86,212.13,146.09,210.54,150.07Z" transform="translate(-34.83 -75)"/><path class="cls-5" d="M211.61,132.27s-2.55-1.68,1.48-2.75a7.56,7.56,0,0,1,6.88,1.74s-6.41,4.26-8.65,4.15S211.61,132.27,211.61,132.27Z" transform="translate(-34.83 -75)"/><path class="cls-4" d="M208.07,137.91s-3.55-1.85-3.78-.18,7.54,4.34,7.71,6.28,2.31-3,2.71-5-4.69-2.93-5.49-.45Z" transform="translate(-34.83 -75)"/><path class="cls-4" d="M209.66,150c-2.27-11.53,2.6-28.94,2.65-29.12l0.89,0.25c0,0.17-4.86,17.37-2.63,28.69Z" transform="translate(-34.83 -75)"/><path class="cls-4" d="M212,120.89s-7.1.24-4.76,2.43,7.35,0.35,8.06.38,3.41-4.82,1-5.6C212.89,117,211.7,117.52,212,120.89Z" transform="translate(-34.83 -75)"/><path class="cls-4" d="M207,151.53a47,47,0,0,1,1.79-13.14l0.88,0.27a46,46,0,0,0-1.75,12.85Z" transform="translate(-34.83 -75)"/><path class="cls-5" d="M224.64,123.72s3.39-1.4-1.57-2.89a11.42,11.42,0,0,0-8.85,1s7.63,4.92,10.46,5.05S224.64,123.72,224.64,123.72Z" transform="translate(-34.83 -75)"/><path class="cls-5" d="M226.4,143.65l-1-.05c0.28-6,10.76-13,11.21-13.26l0.57,0.87C237,131.29,226.65,138.15,226.4,143.65Z" transform="translate(-34.83 -75)"/><path class="cls-4" d="M228.51,129.7s4.67-1.46,4.79.22-10,3.51-10.38,5.42-2.6-3.23-2.87-5.3,6.23-2.42,7,.14Z" transform="translate(-34.83 -75)"/><path class="cls-4" d="M225.14,141.6l-1-.36c4-11-.22-28.56-0.27-28.74l1-.25C225.09,113,229.25,130.32,225.14,141.6Z" transform="translate(-34.83 -75)"/><path class="cls-4" d="M229.42,141.74l-1-.24c2.14-8.89,9.46-17.74,9.77-18.11l0.8,0.67C238.9,124.15,231.5,133.09,229.42,141.74Z" transform="translate(-34.83 -75)"/><path class="cls-4" d="M238.59,123.42s6.55-6.79,6.84-2.19a9,9,0,0,1-3.7,7.71s-9.37-2.46-9.93-5.2S238.59,123.42,238.59,123.42Z" transform="translate(-34.83 -75)"/><path class="cls-4" d="M228.38,143.38l-1-.14a36.69,36.69,0,0,0-.84-12.91l1-.28A37,37,0,0,1,228.38,143.38Z" transform="translate(-34.83 -75)"/><path class="cls-5" d="M205.33,112.81s12,0.07,14.27,5.38-3.39.07-6.32-.08S196.42,111.42,205.33,112.81Z" transform="translate(-34.83 -75)"/><path class="cls-5" d="M181.52,135.67S179,134,183,132.92a7.57,7.57,0,0,1,6.88,1.74s-6.41,4.26-8.65,4.15S181.52,135.67,181.52,135.67Z" transform="translate(-34.83 -75)"/><path class="cls-4" d="M179.57,153.39c-2.27-11.54,2.6-28.94,2.65-29.12l0.89,0.25c0,0.17-4.86,17.37-2.63,28.69Z" transform="translate(-34.83 -75)"/><path class="cls-4" d="M181.91,124.28s-7.1.24-4.76,2.43,7.35,0.35,8.06.38,3.41-4.82,1-5.6C182.79,120.36,181.61,120.91,181.91,124.28Z" transform="translate(-34.83 -75)"/><path class="cls-5" d="M196.89,144.84l-1-.37c0.09-.24,9.05-23.91,9.1-31.15h1C206,120.75,197.26,143.86,196.89,144.84Z" transform="translate(-34.83 -75)"/><path class="cls-5" d="M181.79,121.86s3.39-1.4-1.57-2.89a11.42,11.42,0,0,0-8.85,1s7.63,4.92,10.46,5.05S181.79,121.86,181.79,121.86Z" transform="translate(-34.83 -75)"/><path class="cls-5" d="M196.3,147l-1-.05c0.28-6,10.77-13,11.21-13.26l0.57,0.87C206.94,134.68,196.56,141.54,196.3,147Z" transform="translate(-34.83 -75)"/><path class="cls-4" d="M198.42,133.1s4.67-1.46,4.79.23-10,3.51-10.38,5.42-2.6-3.23-2.87-5.3,6.23-2.42,7,.14Z" transform="translate(-34.83 -75)"/><path class="cls-4" d="M195.05,145l-1-.36c4-11-.22-28.56-0.27-28.74l1-.25C195,116.39,199.16,133.72,195.05,145Z" transform="translate(-34.83 -75)"/><path class="cls-4" d="M195.26,115.74s8.93,1,5.75,2.92-9.31-.44-10.2-0.48-3.78-5.16-.73-5.68C194.57,111.75,196,112.42,195.26,115.74Z" transform="translate(-34.83 -75)"/><path class="cls-4" d="M199.33,145.14l-1-.24c2.14-8.89,9.46-17.74,9.77-18.11l0.8,0.67C208.81,127.54,201.41,136.49,199.33,145.14Z" transform="translate(-34.83 -75)"/><path class="cls-4" d="M208.5,126.82s6.55-6.79,6.84-2.19a9,9,0,0,1-3.71,7.71s-9.37-2.46-9.93-5.2S208.5,126.82,208.5,126.82Z" transform="translate(-34.83 -75)"/><path class="cls-5" d="M193.17,154.27l-0.71-.5c0.12-.17,12.14-17.27,14.2-21.84l0.79,0.36C205.36,136.93,193.67,153.57,193.17,154.27Z" transform="translate(-34.83 -75)"/><path class="cls-4" d="M223.39,161.78c-2.27-11.54,2.6-28.94,2.65-29.12l0.89,0.25c0,0.17-4.86,17.37-2.63,28.69Z" transform="translate(-34.83 -75)"/><path class="cls-4" d="M225.86,126.52s-7.1.24-4.76,2.43,7.35,0.35,8.06.38,3.41-4.82,1-5.6C226.75,122.59,225.56,123.15,225.86,126.52Z" transform="translate(-34.83 -75)"/><path class="cls-5" d="M217.19,127.28s12,0.07,14.27,5.38-3.39.07-6.32-.08S208.28,125.88,217.19,127.28Z" transform="translate(-34.83 -75)"/><path class="cls-5" d="M210.62,156.62l-1-.37c0.09-.24,9.05-23.91,9.1-31.16h1C219.74,132.54,211,155.64,210.62,156.62Z" transform="translate(-34.83 -75)"/><path class="cls-5" d="M206.62,131.73s1.52-3.34-3.12-1a11.42,11.42,0,0,0-5.79,6.77s8.94-1.61,11.09-3.45S206.62,131.73,206.62,131.73Z" transform="translate(-34.83 -75)"/><path class="cls-4" d="M208.78,156.78l-1-.36c4-11-.22-28.56-0.27-28.74l1-.25C208.73,128.18,212.89,145.51,208.78,156.78Z" transform="translate(-34.83 -75)"/><path class="cls-4" d="M206.14,136.29s8.93,1,5.75,2.92-9.31-.44-10.2-0.48-3.79-5.16-.73-5.68C205.44,132.29,206.87,133,206.14,136.29Z" transform="translate(-34.83 -75)"/><path class="cls-5" d="M175.94,135.13s3.39-1.4-1.57-2.89a11.42,11.42,0,0,0-8.85,1s7.63,4.92,10.46,5.05S175.94,135.13,175.94,135.13Z" transform="translate(-34.83 -75)"/><path class="cls-4" d="M183.72,151.33l-1-.36c4-11-.22-28.56-0.27-28.73l1-.25C183.67,122.72,187.83,140,183.72,151.33Z" transform="translate(-34.83 -75)"/><path class="cls-4" d="M198.29,146.78l-1-.14a36.67,36.67,0,0,0-.84-12.91l1-.28A37,37,0,0,1,198.29,146.78Z" transform="translate(-34.83 -75)"/><path class="cls-5" d="M188.8,133.75s7,2.05,3.75,5.33-2.71,5.55-2.71,5.55S177.28,128.1,188.8,133.75Z" transform="translate(-34.83 -75)"/><path class="cls-5" d="M214.25,139.15s-5.39-4-6,.16-2.55,5-2.55,5S224.81,144.5,214.25,139.15Z" transform="translate(-34.83 -75)"/><path class="cls-4" d="M238.61,134.31s8.93,1,5.75,2.92-9.31-.44-10.2-0.48-3.79-5.16-.73-5.68C237.91,130.31,239.34,131,238.61,134.31Z" transform="translate(-34.83 -75)"/><path class="cls-5" d="M239.72,133s3.39-1.4-1.57-2.89a11.42,11.42,0,0,0-8.85,1s7.63,4.92,10.46,5.05S239.72,133,239.72,133Z" transform="translate(-34.83 -75)"/><path class="cls-5" d="M235.92,135s7.21-1.71,5.58,4.62-0.26,9-.26,9S223.08,134.84,235.92,135Z" transform="translate(-34.83 -75)"/><path class="cls-4" d="M222.23,138.61s6.56-6.79,6.84-2.19a9,9,0,0,1-3.71,7.71s-9.37-2.46-9.93-5.2S222.23,138.61,222.23,138.61Z" transform="translate(-34.83 -75)"/><path class="cls-5" d="M214.26,133.72s12,0.06,14.27,5.38-3.39.07-6.32-.08S205.36,132.33,214.26,133.72Z" transform="translate(-34.83 -75)"/><polygon class="cls-6" points="199.48 67.27 199.48 87.77 141.9 92.11 141.9 70.37 199.48 67.27"/><polygon class="cls-7" points="141.95 70.36 141.96 92.1 133.26 90.46 133.26 69.35 141.95 70.36"/><path class="cls-8" d="M97.73,123.66v152l48-9.51V118.47Zm2.88,49.16,17-2.18v20.3l-17,2.09V172.82Zm17,62-17,2.05V214.45l17.17-2.54ZM143,157.67l-42.39,5.64V130.71L143,126.08v31.59Z" transform="translate(-34.83 -75)"/><polygon class="cls-8" points="110.87 43.47 87.62 40.19 43.75 45.42 62.89 48.67 110.87 43.47"/><polygon class="cls-9" points="43.75 45.42 43.35 189.87 62.89 200.69 62.89 48.67 43.75 45.42"/><polygon class="cls-10" points="110.87 43.47 87.62 40.19 43.75 45.42 62.89 48.67 110.87 43.47"/><polygon class="cls-9" points="82.82 53.85 82.82 74.15 65.77 76.24 65.77 88.31 108.16 82.67 108.16 51.08 82.82 53.85"/><polygon class="cls-11" points="82.82 74.15 108.16 82.67 108.16 51.08 82.82 53.85 82.82 74.15"/><polygon class="cls-9" points="108.16 92.89 108.16 124.47 107.84 124.52 107.62 124.54 107.51 124.56 105.2 124.86 105 124.88 73.07 129.15 72.89 129.17 72.42 129.24 70.93 129.44 70.5 129.49 65.78 130.12 65.78 118.04 65.94 118.02 69.03 117.63 69.05 117.63 72.1 117.25 72.15 117.25 82.81 115.94 82.81 95.64 108.16 92.89"/><polygon class="cls-11" points="82.82 115.94 108.16 124.47 108.16 92.88 82.82 95.64 82.82 115.94"/><polygon class="cls-9" points="82.86 136.91 82.73 159.83 65.69 161.88 65.69 176.36 108.07 168.35 108.2 132.89 82.86 136.91"/><polygon class="cls-11" points="82.73 159.83 108.07 168.35 108.2 132.89 82.86 136.91 82.73 159.83"/><polygon class="cls-12" points="105.72 56.43 99.63 81.78 93.24 82.67 100.54 55.16 105.72 56.43"/><polygon class="cls-3" points="100.54 55.16 88.06 54.37 82.82 78.64 93.24 82.67 100.54 55.16"/><polygon class="cls-6" points="90 53.06 89.54 83.17 86.84 83.58 88.1 53.27 90 53.06"/><polygon class="cls-6" points="88.1 53.27 75.69 54.62 74.53 79.09 86.84 83.58 88.1 53.27"/><polygon class="cls-13" points="88.1 53.27 75.69 54.62 74.53 79.09 86.84 83.58 88.1 53.27"/><polygon class="cls-6" points="86.25 53.48 85.79 83.76 83.09 84.17 84.35 53.69 86.25 53.48"/><polygon class="cls-6" points="84.35 53.69 71.94 55.05 70.78 79.66 83.09 84.17 84.35 53.69"/><polygon class="cls-13" points="84.35 53.69 71.94 55.05 70.78 79.66 83.09 84.17 84.35 53.69"/><polygon class="cls-6" points="82.27 53.91 81.81 84.36 79.11 84.77 80.37 54.12 82.27 53.91"/><polygon class="cls-6" points="80.37 54.12 67.96 55.49 66.8 80.23 79.11 84.77 80.37 54.12"/><polygon class="cls-13" points="80.37 54.12 67.96 55.49 66.8 80.23 79.11 84.77 80.37 54.12"/><polygon class="cls-6" points="78.36 54.37 77.9 85.13 75.2 85.54 76.46 54.58 78.36 54.37"/><polygon class="cls-6" points="76.46 54.58 65.77 55.71 65.77 82.03 75.2 85.54 76.46 54.58"/><polygon class="cls-13" points="76.46 54.58 65.77 55.71 65.77 82.03 75.2 85.54 76.46 54.58"/><path class="cls-3" d="M107.57,202.62l0.33,3.31,37.46-3.79a2.62,2.62,0,0,0-.29-2.82Z" transform="translate(-34.83 -75)"/><path class="cls-12" d="M107.91,204.15a7.82,7.82,0,0,1,0,1.78l-2.57-1.45-4.72-2.62v-2l-0.16-.07,0.16,0v-0.27l1.17,0.52,1.56,0.68,4.22,1.87A5.83,5.83,0,0,1,107.91,204.15Z" transform="translate(-34.83 -75)"/><polygon class="cls-12" points="110.24 124.32 108.27 124.5 107.62 124.54 76.46 127.3 76.26 127.3 72.73 127.61 68.51 125.74 66.95 125.06 65.78 124.54 65.78 123.95 69.94 123.59 71.49 123.46 71.94 123.41 72.13 123.39 72.42 123.37 73.01 123.32 73.16 123.3 97.75 121.18 99.72 121.67 101.48 122.1 108.16 123.8 108.52 123.89 110.24 124.32"/><path class="cls-7" d="M107.25,204.24a3.71,3.71,0,0,1-.09,1l-1.4-.79-5.15-3v-1.63l1.35,0.61,4.94,2.19A5.67,5.67,0,0,1,107.25,204.24Z" transform="translate(-34.83 -75)"/><path class="cls-8" d="M110.94,199l0.34,3.33L143,199.61c0.68-.95.42-2-0.3-3Z" transform="translate(-34.83 -75)"/><path class="cls-14" d="M111.29,202.27v0h0s0,0,0,0l-0.16,0h0l-7.74-1.56-1.38-.27-1.35-.27v-0.34l-0.16-.07,0.16,0v-2.42l5.31,0.84h0l0.7,0.11h0l0.29,0,0.29,0,0.61,0.11,0.14,0,2.94,0.45s0,0,0,0A3.8,3.8,0,0,1,111.29,202.27Z" transform="translate(-34.83 -75)"/><path class="cls-6" d="M110.14,201.69l-8.35-1.63-1.17-.25v-2l4.15,0.77,2.69,0.5,0.47,0.09h0l0.63,0.11,1.33,0.25A1.86,1.86,0,0,1,110.14,201.69Z" transform="translate(-34.83 -75)"/><polygon class="cls-14" points="107.89 121.63 101.5 122.1 101.48 122.1 77.75 123.89 77.52 123.91 76.1 124.02 73.16 123.57 73.03 123.55 72.42 123.44 72.13 123.39 71.83 123.34 71.81 123.34 71.11 123.23 71.09 123.23 65.78 122.4 65.78 121.74 68.13 121.58 68.65 121.54 72.19 121.29 72.8 121.25 72.85 121.25 88.27 120.16 88.4 120.16 91.7 119.91 93.03 120.05 93.08 120.05 104.07 121.22 104.1 121.22 107.89 121.63"/><path class="cls-4" d="M107.61,196.05l0.34,3.31,37.46-3.79a2.62,2.62,0,0,0-.29-2.82Z" transform="translate(-34.83 -75)"/><path class="cls-5" d="M108,198.3v0.27a5.49,5.49,0,0,1,0,.61v0.18l-0.45-.27h0l-1.13-.63-0.38-.23h0l-3-1.65-1.74-1-0.41-.23-0.2-.11v-2.33l5.22,2.3,0.56,0.25,1.22,0.54,0.07,0.2A6.13,6.13,0,0,1,108,198.3Z" transform="translate(-34.83 -75)"/><polygon class="cls-5" points="110.28 117.75 97.62 118.85 96.4 118.96 94.43 119.14 94.41 119.14 85.63 119.91 85.58 119.91 81.27 120.3 81.2 120.3 72.78 121.04 71.56 120.5 71 120.25 65.78 117.95 65.78 117.38 65.83 117.38 97.8 114.61 99.54 115.04 99.94 115.15 103.89 116.14 104.57 116.3 110.28 117.75"/><path class="cls-7" d="M107.25,198.37v0.07a0.8,0.8,0,0,1,0,.23l-0.43-.25-0.11-.07h0l-3.16-1.81-1.65-.95-0.41-.23-0.81-.47v-1.63l4.52,2,0.54,0.25,1.29,0.56,0.07,0.2A4.69,4.69,0,0,1,107.25,198.37Z" transform="translate(-34.83 -75)"/><polygon class="cls-12" points="104.8 113.23 99.54 115.04 94.39 116.82 72.15 117.25 72.1 117.25 65.83 117.38 65.78 117.38 65.78 115.85 73.91 113.68 104.8 113.23"/><polygon class="cls-12" points="94.43 119.53 94.43 120.03 93.08 120.05 93.03 120.05 88.4 120.16 88.27 120.16 81.27 120.3 81.2 120.3 71.56 120.5 70.84 120.52 67 120.59 66.39 120.61 65.78 120.61 65.78 117.38 65.83 117.38 72.1 117.25 72.15 117.25 94.39 116.82 94.39 117.09 94.41 118.42 94.41 119.14 94.43 119.53"/><path class="cls-12" d="M129.21,191.83l0.06,3.2,10.47-3.83a7.63,7.63,0,0,0-.1-3Z" transform="translate(-34.83 -75)"/><polygon class="cls-7" points="94.43 119.14 94.43 119.71 85.63 119.91 85.58 119.91 71 120.25 70.3 120.27 66.59 120.36 65.98 120.39 65.78 120.39 65.78 117.7 69.03 117.63 69.05 117.63 94.39 117.09 94.41 118.42 94.43 119.14"/><path class="cls-6" d="M129.22,192.09l10.05-3.53a5.6,5.6,0,0,1,.08,2.33l-10.09,3.81Z" transform="translate(-34.83 -75)"/><path class="cls-6" d="M109.78,102.3L108,120c0,0.59-3.3,1-7.29,1a39.39,39.39,0,0,1-5.1-.29c-1.33-.2-2.14-0.45-2.17-0.74l-0.18-1.9-1.6-15.76h18.13Z" transform="translate(-34.83 -75)"/><path class="cls-6" d="M109.78,102.33c-0.06.78-4.12,1.41-9.06,1.41s-9-.63-9.06-1.41,4-1.44,9.06-1.44S109.84,101.54,109.78,102.33Z" transform="translate(-34.83 -75)"/><path class="cls-15" d="M108.52,103a34.24,34.24,0,0,0-7.81-.71,34.24,34.24,0,0,0-7.81.71,34.27,34.27,0,0,0,7.81.71A34.28,34.28,0,0,0,108.52,103Z" transform="translate(-34.83 -75)"/><path class="cls-13" d="M109.78,102.3L108,120c0,0.59-3.3,1-7.29,1a39.39,39.39,0,0,1-5.1-.29c-1.33-.2-2.14-0.45-2.17-0.74l-0.18-1.9a19.18,19.18,0,0,0,3.68.2,8.81,8.81,0,0,0,8.87-7.4c0.39-2.76,1-6.09,1-7.51C109.85,102.91,109.78,102.3,109.78,102.3Z" transform="translate(-34.83 -75)"/><path class="cls-4" d="M105.17,103s-1.16-10.52,1-14.74,6.74-11.19,10.11-12.87,1.37,3.49-1.54,6.5-7.91,21.45-7.91,21.45Z" transform="translate(-34.83 -75)"/><path class="cls-4" d="M101.52,103a31.21,31.21,0,0,1-3.77-13.61c-0.12-7.38-1-13.81-2.17-14.33s-1.2,1.29-1,4.9a81,81,0,0,1-.13,10.61c-0.24,5.16-.15,7.13,1.21,8.77s3.37,4,3.37,4Z" transform="translate(-34.83 -75)"/><path class="cls-4" d="M103.45,102.43a22.9,22.9,0,0,0-1.93-8c-1.72-3.37,3.93-14.32,6-14.08s-1.55,6.14-2.64,7.94-0.54,14.14-.54,14.14h-0.87Z" transform="translate(-34.83 -75)"/><path class="cls-5" d="M97.15,103.62s0.14-8.17-5.49-13.94S80.73,87,81.9,88.44s2.13,1.79,4.68,3.37A12,12,0,0,1,91.65,97c1.73,2.88,3.95,6.51,3.95,6.51Z" transform="translate(-34.83 -75)"/><path class="cls-5" d="M101.34,103.71s2.48-5.57-.15-8.75C98,91,97,86,96.26,85.1S95.7,78.55,98,80.91s1.9,4,2.43,5.85,2.6,4.13,2.72,7.2,0.53,4.61,0,6.49a26.66,26.66,0,0,0-.71,3.26h-1.05Z" transform="translate(-34.83 -75)"/><path class="cls-5" d="M105.17,103.55s0.55-9.81,4.22-14.33,2.51-5.62,3.49-6.46,4-3.64,2.66,0-2.58,3.87-3.64,7.9-1.12,4.93-2.11,6.76-2.32,5.05-3,5.94C105.63,103.51,105.17,103.55,105.17,103.55Z" transform="translate(-34.83 -75)"/><path class="cls-4" d="M95.6,103.48s0.16-6.78-2.34-8.13S88.11,93,86.82,93.3s0.35,2.7,1.76,3.63,2.27,1.11,3.07,2.29,2.93,4.14,2.93,4.14Z" transform="translate(-34.83 -75)"/><path class="cls-4" d="M108.52,103s0.52-3.92,1.69-5,1.83-3.69,2.4-5.14c0.76-1.95.12-3.53-1.17-1.77s-1.18,1.17-2.29,2.7-2,2.43-1.7,4.54a13.93,13.93,0,0,1-.63,5Z" transform="translate(-34.83 -75)"/><path class="cls-4" d="M100.36,102.74s-3.11-4.87-2.11-6.8-0.62-4-.2-5.57c0.53-2,4-5.1,3.46-2.76s0.17,2.23,0,5.63-0.84,4.53-.32,6.09a22.15,22.15,0,0,1,.93,3.09c0.27,1.28-.61.59-0.61,0.59Z" transform="translate(-34.83 -75)"/><path class="cls-5" d="M100.71,103.74A7.78,7.78,0,0,0,99.37,98c-2-3.11-3.09-5.74-2.22-7.68S95,84.88,95.21,86.31a11.92,11.92,0,0,1,0,4.06,4.6,4.6,0,0,0,.4,3.87c0.9,1.35,2.44,2.4,2.28,3.63s-0.86,1.52-.39,2.58a19.38,19.38,0,0,0,2.62,3.28h0.6Z" transform="translate(-34.83 -75)"/><polygon class="cls-7" points="236.95 161.97 241.97 205.68 257.33 209.96 272.77 205.19 276.42 161.49 256.28 164.95 236.95 161.97"/><polygon class="cls-6" points="236.95 161.97 253.69 160.05 276.42 161.49 256.28 164.95 236.95 161.97"/><polygon class="cls-16" points="257.33 209.96 256.28 164.95 253.69 160.05 276.42 161.49 272.77 205.19 257.33 209.96"/><polygon class="cls-3" points="199.22 66.77 212.96 66.22 327.8 72.36 319.11 73.38 199.22 66.77"/><path class="cls-5" d="M258.68,110.73s-11-7.5-15.24-2,3.08,2.23,5.83,3.89S267.4,114.53,258.68,110.73Z" transform="translate(-34.83 -75)"/><path class="cls-4" d="M268.53,113.18s-8.93,1-5.75,2.92,9.31-.44,10.2-0.48,3.78-5.16.73-5.68C269.22,109.18,267.79,109.86,268.53,113.18Z" transform="translate(-34.83 -75)"/><path class="cls-5" d="M314.44,143.32c-0.5-.71-12.19-17.34-14.28-22L301,121c2.05,4.56,14.07,21.66,14.2,21.83Z" transform="translate(-34.83 -75)"/><path class="cls-5" d="M335.26,131.76s-3.39-1.4,1.57-2.89a11.42,11.42,0,0,1,8.85,1s-7.63,4.92-10.46,5.05S335.26,131.76,335.26,131.76Z" transform="translate(-34.83 -75)"/><path class="cls-5" d="M300.93,121s-12,.06-14.27,5.38,3.39,0.07,6.32-.08S309.84,119.57,300.93,121Z" transform="translate(-34.83 -75)"/><path class="cls-5" d="M312.4,143.36c-1.8-3.44-7.41-8.15-7.47-8.2l0.55-.66c0.24,0.2,5.8,4.87,7.68,8.47Z" transform="translate(-34.83 -75)"/><path class="cls-4" d="M312.43,130.54s-4.61,1.1-4.25,2.22,9.95-2.11,10.84-1.08,1.45-3.16,1.13-4.58-6.28,1.18-6.24,3.11Z" transform="translate(-34.83 -75)"/><path class="cls-4" d="M317.78,150.65c-4.11-11.28.05-28.61,0.23-29.34l1,0.25c0,0.18-4.26,17.76-.27,28.74Z" transform="translate(-34.83 -75)"/><path class="cls-4" d="M317.56,121.4s-8.93,1-5.75,2.92,9.31-.44,10.2-0.48,3.79-5.16.73-5.68C318.26,117.4,316.83,118.08,317.56,121.4Z" transform="translate(-34.83 -75)"/><path class="cls-4" d="M274.71,141.93s-8.93,1-5.75,2.92,9.31-.44,10.2-0.48,3.79-5.16.73-5.68C275.41,137.93,274,138.61,274.71,141.93Z" transform="translate(-34.83 -75)"/><path class="cls-4" d="M314.48,143.36c-4.3-4.59-13-11.82-13.05-11.9l0.55-.66c0.09,0.07,8.79,7.34,13.13,12Z" transform="translate(-34.83 -75)"/><path class="cls-4" d="M301.61,130.95s-7.77-1.43-6.76,1.59c1.12,3.33,5.46,3.25,5.46,3.25s7.76-5.61,7.51-7.58S301.61,130.95,301.61,130.95Z" transform="translate(-34.83 -75)"/><path class="cls-5" d="M283.34,150.91c-1.59-4-1.95-17.21-2-17.77l0.93,0c0,0.14.37,13.62,1.9,17.45Z" transform="translate(-34.83 -75)"/><path class="cls-5" d="M282.27,133.1s2.55-1.68-1.48-2.75a7.57,7.57,0,0,0-6.88,1.74s6.41,4.26,8.65,4.15S282.27,133.1,282.27,133.1Z" transform="translate(-34.83 -75)"/><path class="cls-4" d="M285.82,138.74s3.55-1.85,3.78-.18-7.54,4.34-7.71,6.28-2.31-3-2.71-5,4.69-2.93,5.49-.44Z" transform="translate(-34.83 -75)"/><path class="cls-4" d="M284.23,150.83l-0.91-.18c2.23-11.31-2.58-28.51-2.63-28.68l0.89-.25C281.63,121.89,286.5,139.29,284.23,150.83Z" transform="translate(-34.83 -75)"/><path class="cls-4" d="M281.88,121.72s7.1,0.24,4.76,2.43-7.35.35-8.06,0.38-3.41-4.82-1-5.6C281,117.8,282.18,118.35,281.88,121.72Z" transform="translate(-34.83 -75)"/><path class="cls-4" d="M286.92,152.36l-0.93,0a46,46,0,0,0-1.75-12.85l0.88-.27A46.93,46.93,0,0,1,286.92,152.36Z" transform="translate(-34.83 -75)"/><path class="cls-5" d="M345.19,148.89c-1-3.25.92-12.9,1-13.31l0.82,0.17c0,0.1-2,9.84-1,12.89Z" transform="translate(-34.83 -75)"/><path class="cls-5" d="M347.07,135.75s3-.65-1.11-2.3a11.39,11.39,0,0,0-7.74-.26s6.18,4.48,8.61,4.89S347.07,135.75,347.07,135.75Z" transform="translate(-34.83 -75)"/><path class="cls-5" d="M346.87,150.6l-0.83-.14c0.76-4.44,10.41-8.36,10.82-8.52l0.31,0.78C357.09,142.75,347.55,146.61,346.87,150.6Z" transform="translate(-34.83 -75)"/><path class="cls-4" d="M349.91,140.59s4.16-.55,4.12.71-8.91,1.46-9.43,2.82-2-2.67-2-4.22,5.59-1.08,6,.89Z" transform="translate(-34.83 -75)"/><path class="cls-4" d="M346,149l-0.73-.42c4.36-7.6,2.2-21,2.18-21.09l0.83-.14C348.32,127.89,350.47,141.12,346,149Z" transform="translate(-34.83 -75)"/><path class="cls-4" d="M348.64,127.48s7.63,1.73,4.72,2.79-8-1.37-8.77-1.5-2.84-4.22-.15-4.26C348.38,124.46,349.56,125.12,348.64,127.48Z" transform="translate(-34.83 -75)"/><path class="cls-4" d="M243.21,131.76s7.63,1.73,4.72,2.79-8-1.37-8.77-1.5-2.84-4.22-.15-4.26C242.95,128.74,244.13,129.4,243.21,131.76Z" transform="translate(-34.83 -75)"/><path class="cls-4" d="M349.64,149.55l-0.77-.32c2.61-6.31,9.69-12,10-12.23l0.52,0.65C359.3,137.71,352.16,143.44,349.64,149.55Z" transform="translate(-34.83 -75)"/><path class="cls-4" d="M348.61,150.63l-0.8-.23a23.24,23.24,0,0,0,.36-9.54l0.82-.16A23.61,23.61,0,0,1,348.61,150.63Z" transform="translate(-34.83 -75)"/><path class="cls-5" d="M266.9,142.27c-0.37-1-9.12-24.08-9.17-31.52h1c0.05,7.25,9,30.92,9.1,31.16Z" transform="translate(-34.83 -75)"/><path class="cls-5" d="M269.24,124.55s-3.39-1.4,1.57-2.89a11.42,11.42,0,0,1,8.85,1s-7.63,4.92-10.46,5.05S269.24,124.55,269.24,124.55Z" transform="translate(-34.83 -75)"/><path class="cls-5" d="M267.49,144.49c-0.26-5.5-10.64-12.36-10.74-12.43l0.57-.87c0.45,0.29,10.93,7.22,11.21,13.26Z" transform="translate(-34.83 -75)"/><path class="cls-4" d="M265.38,130.54s-4.67-1.46-4.79.23,10,3.51,10.38,5.42,2.6-3.23,2.87-5.3-6.23-2.42-7,.14Z" transform="translate(-34.83 -75)"/><path class="cls-4" d="M268.74,142.43c-4.11-11.28.05-28.61,0.23-29.34l1,0.25c0,0.18-4.26,17.76-.27,28.74Z" transform="translate(-34.83 -75)"/><path class="cls-4" d="M264.47,142.58c-2.08-8.66-9.49-17.6-9.56-17.69l0.8-.67c0.31,0.37,7.63,9.22,9.77,18.11Z" transform="translate(-34.83 -75)"/><path class="cls-4" d="M255.29,124.25s-6.55-6.79-6.84-2.19a9,9,0,0,0,3.71,7.71s9.37-2.46,9.93-5.2S255.29,124.25,255.29,124.25Z" transform="translate(-34.83 -75)"/><path class="cls-4" d="M265.5,144.22a37,37,0,0,1,.87-13.33l1,0.28a36.7,36.7,0,0,0-.84,12.91Z" transform="translate(-34.83 -75)"/><path class="cls-5" d="M344.54,146.72c-0.5-.71-12.19-17.34-14.28-22l0.79-.36c2.05,4.56,14.08,21.66,14.2,21.84Z" transform="translate(-34.83 -75)"/><path class="cls-5" d="M331,124.36s-12,.06-14.27,5.38,3.39,0.07,6.32-.08S339.93,123,331,124.36Z" transform="translate(-34.83 -75)"/><path class="cls-5" d="M288.55,113.65s-12,.07-14.27,5.38,3.39,0.07,6.32-.08S297.46,112.26,288.55,113.65Z" transform="translate(-34.83 -75)"/><path class="cls-4" d="M342.52,133.93s-4.61,1.1-4.25,2.22,9.95-2.11,10.84-1.08,1.45-3.16,1.13-4.58-6.28,1.18-6.24,3.11Z" transform="translate(-34.83 -75)"/><path class="cls-4" d="M331.7,134.35s-7.77-1.43-6.76,1.59c1.12,3.33,5.46,3.25,5.46,3.25s7.76-5.61,7.51-7.58S331.7,134.35,331.7,134.35Z" transform="translate(-34.83 -75)"/><path class="cls-5" d="M312.36,136.5s2.55-1.68-1.48-2.75a7.57,7.57,0,0,0-6.88,1.74s6.41,4.26,8.65,4.15S312.36,136.5,312.36,136.5Z" transform="translate(-34.83 -75)"/><path class="cls-4" d="M314.32,154.23l-0.91-.18c2.23-11.32-2.58-28.51-2.63-28.69l0.89-.25C311.72,125.28,316.59,142.69,314.32,154.23Z" transform="translate(-34.83 -75)"/><path class="cls-4" d="M312,125.12s7.1,0.24,4.76,2.43-7.35.35-8.06,0.38-3.41-4.82-1-5.6C311.09,121.19,312.27,121.75,312,125.12Z" transform="translate(-34.83 -75)"/><path class="cls-5" d="M297,145.67c-0.37-1-9.12-24.08-9.17-31.52h1c0.05,7.25,9,30.92,9.1,31.16Z" transform="translate(-34.83 -75)"/><path class="cls-5" d="M299.33,127.95s-3.39-1.4,1.57-2.89a11.42,11.42,0,0,1,8.85,1s-7.63,4.92-10.46,5.05S299.33,127.95,299.33,127.95Z" transform="translate(-34.83 -75)"/><path class="cls-5" d="M297.58,147.88c-0.26-5.5-10.64-12.36-10.74-12.43l0.57-.87c0.45,0.29,10.93,7.22,11.21,13.26Z" transform="translate(-34.83 -75)"/><path class="cls-4" d="M295.47,133.94s-4.67-1.46-4.79.23,10,3.51,10.38,5.42,2.6-3.23,2.87-5.3-6.23-2.42-7,.14Z" transform="translate(-34.83 -75)"/><path class="cls-4" d="M298.83,145.83c-4.11-11.28.05-28.61,0.23-29.34l1,0.25c0,0.18-4.26,17.76-.27,28.74Z" transform="translate(-34.83 -75)"/><path class="cls-4" d="M298.62,116.58s-8.93,1-5.75,2.92,9.31-.44,10.2-0.48,3.79-5.16.73-5.68C299.31,112.58,297.88,113.26,298.62,116.58Z" transform="translate(-34.83 -75)"/><path class="cls-4" d="M294.56,146c-2.08-8.65-9.49-17.6-9.56-17.69l0.8-.67c0.31,0.37,7.63,9.22,9.77,18.11Z" transform="translate(-34.83 -75)"/><path class="cls-4" d="M285.38,127.65s-6.55-6.79-6.84-2.19a9,9,0,0,0,3.71,7.71s9.37-2.46,9.93-5.2S285.38,127.65,285.38,127.65Z" transform="translate(-34.83 -75)"/><path class="cls-5" d="M300.71,155.11c-0.5-.71-12.19-17.34-14.28-22l0.79-.35c2.05,4.56,14.07,21.66,14.2,21.84Z" transform="translate(-34.83 -75)"/><path class="cls-4" d="M270.49,162.62l-0.91-.18c2.23-11.32-2.58-28.51-2.63-28.69l0.89-.25C267.9,133.67,272.77,151.08,270.49,162.62Z" transform="translate(-34.83 -75)"/><path class="cls-4" d="M268,127.35s7.1,0.24,4.76,2.43-7.35.35-8.06,0.38-3.41-4.82-1-5.6C267.14,123.43,268.32,124,268,127.35Z" transform="translate(-34.83 -75)"/><path class="cls-4" d="M255,154.22c-4.11-11.28.05-28.61,0.23-29.34l1,0.25c0,0.18-4.26,17.76-.27,28.73Z" transform="translate(-34.83 -75)"/><path class="cls-5" d="M276.69,128.11s-12,.06-14.27,5.38,3.39,0.07,6.32-.08S285.6,126.72,276.69,128.11Z" transform="translate(-34.83 -75)"/><path class="cls-5" d="M283.26,157.46c-0.37-1-9.12-24.08-9.17-31.52h1c0.05,7.25,9,30.92,9.1,31.16Z" transform="translate(-34.83 -75)"/><path class="cls-5" d="M287.27,132.56s-1.52-3.34,3.12-1a11.42,11.42,0,0,1,5.79,6.77s-8.94-1.61-11.09-3.45S287.27,132.56,287.27,132.56Z" transform="translate(-34.83 -75)"/><path class="cls-4" d="M285.1,157.62c-4.11-11.28.05-28.61,0.23-29.34l1,0.25c0,0.18-4.26,17.76-.27,28.74Z" transform="translate(-34.83 -75)"/><path class="cls-4" d="M287.75,137.13s-8.93,1-5.75,2.92,9.31-.44,10.2-0.48,3.79-5.16.73-5.68C288.44,133.13,287,133.81,287.75,137.13Z" transform="translate(-34.83 -75)"/><path class="cls-5" d="M355.86,153c-0.5-.71-12.19-17.34-14.28-22l0.79-.35c2.05,4.56,14.08,21.66,14.2,21.84Z" transform="translate(-34.83 -75)"/><path class="cls-5" d="M342.35,130.69s-12,.07-14.27,5.38,3.39,0.07,6.32-.08S351.26,129.3,342.35,130.69Z" transform="translate(-34.83 -75)"/><path class="cls-4" d="M325.64,160.56l-0.91-.18c2.23-11.32-2.58-28.51-2.63-28.69l0.89-.25C323,131.61,327.92,149,325.64,160.56Z" transform="translate(-34.83 -75)"/><path class="cls-4" d="M323.3,131.45s7.1,0.24,4.76,2.43-7.35.35-8.06,0.38-3.41-4.82-1-5.6C322.42,127.52,323.6,128.08,323.3,131.45Z" transform="translate(-34.83 -75)"/><path class="cls-5" d="M310.66,134.28s-3.39-1.4,1.57-2.89a11.42,11.42,0,0,1,8.85,1s-7.63,4.92-10.46,5.05S310.66,134.28,310.66,134.28Z" transform="translate(-34.83 -75)"/><path class="cls-4" d="M310.16,152.16c-4.11-11.28.05-28.61,0.23-29.34l1,0.25c0,0.18-4.26,17.76-.27,28.73Z" transform="translate(-34.83 -75)"/><path class="cls-5" d="M330,123.38s-12,.07-14.27,5.38,3.39,0.07,6.32-.08S338.88,122,330,123.38Z" transform="translate(-34.83 -75)"/><path class="cls-5" d="M338.41,155.4c-0.37-1-9.12-24.08-9.17-31.52h1c0.05,7.25,9,30.92,9.1,31.16Z" transform="translate(-34.83 -75)"/><path class="cls-5" d="M340.75,137.68s-3.39-1.4,1.57-2.89a11.42,11.42,0,0,1,8.85,1s-7.63,4.92-10.46,5.05S340.75,137.68,340.75,137.68Z" transform="translate(-34.83 -75)"/><path class="cls-4" d="M340.25,155.56c-4.11-11.28.05-28.61,0.23-29.34l1,0.25c0,0.18-4.26,17.75-.27,28.73Z" transform="translate(-34.83 -75)"/><path class="cls-4" d="M340,126.31s-8.93,1-5.75,2.92,9.31-.44,10.2-0.48,3.78-5.16.73-5.68C340.73,122.31,339.3,123,340,126.31Z" transform="translate(-34.83 -75)"/><path class="cls-4" d="M326.8,137.38s-6.55-6.79-6.84-2.19a9,9,0,0,0,3.7,7.71s9.37-2.46,9.93-5.2S326.8,137.38,326.8,137.38Z" transform="translate(-34.83 -75)"/><path class="cls-4" d="M295.59,147.61a37,37,0,0,1,.87-13.33l1,0.28a36.69,36.69,0,0,0-.84,12.91Z" transform="translate(-34.83 -75)"/><path class="cls-5" d="M244.17,144.81l-1-.37c1.51-3.94.54-17.37,0.52-17.51l1-.08C244.81,127.42,245.76,140.65,244.17,144.81Z" transform="translate(-34.83 -75)"/><path class="cls-5" d="M243.7,126.92s-3.39-1.4,1.57-2.89a11.42,11.42,0,0,1,8.85,1s-7.63,4.92-10.46,5.05S243.7,126.92,243.7,126.92Z" transform="translate(-34.83 -75)"/><path class="cls-5" d="M305.08,134.58s-7,2.05-3.75,5.32,2.71,5.55,2.71,5.55S316.61,128.94,305.08,134.58Z" transform="translate(-34.83 -75)"/><path class="cls-4" d="M358.12,137.95s6.24-4.25,6.09-.84c-0.16,3.76-3.85,5.25-3.85,5.25s-7.89-2.87-8.14-4.94S358.12,137.95,358.12,137.95Z" transform="translate(-34.83 -75)"/><path class="cls-5" d="M355.3,141s6.38-.44,4.43,4-1,6.58-1,6.58S344.21,139.45,355.3,141Z" transform="translate(-34.83 -75)"/><path class="cls-5" d="M279.63,140s5.39-4,6,.16,2.55,5,2.55,5S269.07,145.33,279.63,140Z" transform="translate(-34.83 -75)"/><path class="cls-4" d="M325.17,143.22s-8.93,1-5.75,2.92,9.31-.44,10.2-0.48,3.79-5.16.73-5.68C325.86,139.22,324.43,139.9,325.17,143.22Z" transform="translate(-34.83 -75)"/><path class="cls-5" d="M335.82,143.68s-3.39-1.4,1.57-2.89a11.42,11.42,0,0,1,8.85,1s-7.63,4.92-10.46,5.05S335.82,143.68,335.82,143.68Z" transform="translate(-34.83 -75)"/><path class="cls-5" d="M349.93,144.94l-0.72-.43c0.07-.12,7.45-12.41,8.1-17.72l0.83,0.1C357.47,132.38,350.23,144.43,349.93,144.94Z" transform="translate(-34.83 -75)"/><path class="cls-5" d="M357.37,126.78s10.18-4.27,13.34.28-2.85,1.29-5.36,2.2S349.5,128.59,357.37,126.78Z" transform="translate(-34.83 -75)"/><path class="cls-4" d="M245.9,137.89s-8.93,1-5.75,2.92,9.31-.44,10.2-0.48,3.79-5.16.73-5.68C246.6,133.89,245.17,134.57,245.9,137.89Z" transform="translate(-34.83 -75)"/><path class="cls-5" d="M243.29,135.7s-11-7.5-15.24-2,3.08,2.23,5.83,3.89S252,139.49,243.29,135.7Z" transform="translate(-34.83 -75)"/><path class="cls-4" d="M255.28,135.14s-8.93,1-5.75,2.92,9.31-.44,10.2-0.48,3.79-5.16.73-5.68C256,131.15,254.54,131.82,255.28,135.14Z" transform="translate(-34.83 -75)"/><path class="cls-5" d="M254.16,133.79s-3.39-1.4,1.57-2.89a11.42,11.42,0,0,1,8.85,1s-7.63,4.92-10.46,5.05S254.16,133.79,254.16,133.79Z" transform="translate(-34.83 -75)"/><path class="cls-5" d="M258,135.8s-7.21-1.71-5.58,4.62,0.26,9,.26,9S270.8,135.67,258,135.8Z" transform="translate(-34.83 -75)"/><path class="cls-4" d="M271.65,139.44s-6.55-6.79-6.84-2.19a9,9,0,0,0,3.7,7.71s9.37-2.46,9.93-5.2S271.65,139.44,271.65,139.44Z" transform="translate(-34.83 -75)"/><path class="cls-5" d="M279.62,134.56s-12,.07-14.27,5.38,3.39,0.07,6.32-.08S288.52,133.16,279.62,134.56Z" transform="translate(-34.83 -75)"/><polygon class="cls-7" points="199.22 66.77 199.22 87.27 319.11 95.74 319.11 73.38 199.22 66.77"/><polygon class="cls-6" points="319.11 73.38 319.11 95.74 327.8 94.1 327.8 72.36 319.11 73.38"/><path class="cls-8" d="M313.09,200.44l-2,78.14a2.76,2.76,0,0,1-5.52,0l-2-78.14a4.73,4.73,0,1,1,9.46-.24C313.1,200.28,313.1,200.37,313.09,200.44Z" transform="translate(-34.83 -75)"/><path class="cls-8" d="M187.48,193.87l-2,78.14a2.76,2.76,0,0,1-5.52,0l-2-78.14a4.73,4.73,0,0,1,9.46-.24C187.48,193.71,187.48,193.8,187.48,193.87Z" transform="translate(-34.83 -75)"/><path class="cls-9" d="M352,194.88L350,273a2.76,2.76,0,0,1-5.52,0l-2-78.14a4.73,4.73,0,1,1,9.46-.24C352,194.71,352,194.8,352,194.88Z" transform="translate(-34.83 -75)"/><path class="cls-9" d="M237.47,192.08l-2,75.28a2.76,2.76,0,0,1-5.52,0l-2-75.28a4.73,4.73,0,0,1,9.46-.25C237.47,191.91,237.47,192,237.47,192.08Z" transform="translate(-34.83 -75)"/><polygon class="cls-2" points="199.57 102.78 163.12 100.34 163.12 117.08 250.65 122.92 250.65 114.95 199.57 111.81 199.57 102.78"/><path class="cls-2" d="M234.41,177.77l51.08,3.41Z" transform="translate(-34.83 -75)"/><path class="cls-9" d="M176.82,166.57v31.69L308.36,207l46-5.78V169.57Zm108.66,31.34L198,192.08V175.34l87.53,5.83v16.74Z" transform="translate(-34.83 -75)"/><polygon class="cls-14" points="141.99 91.58 273.53 100.34 319.54 94.57 199.47 87.37 141.99 91.58"/><polygon class="cls-17" points="273.53 100.34 273.53 132.04 319.54 126.26 319.54 94.57 273.53 100.34"/><polygon class="cls-18" points="199.57 102.78 199.57 111.81 163.12 117.08 163.12 100.34 199.57 102.78"/><polygon class="cls-15" points="194.94 91.4 208.64 89.61 234.56 90.9 224.65 93.18 194.94 91.4"/><polygon class="cls-19" points="234.56 90.9 234.56 92.25 224.65 94.53 224.65 93.18 234.56 90.9"/><polygon class="cls-19" points="194.94 91.4 194.94 92.75 224.65 94.53 224.65 93.18 194.94 91.4"/><path class="cls-19" d="M161.73,236a0.82,0.82,0,0,1-.52-1.46,49.07,49.07,0,0,1,6.86-4.38l2-1.13a3.53,3.53,0,0,1,1.2-.44c7.29-1.21,16.88-1.75,17-1.76a0.84,0.84,0,0,1,.87.78,0.83,0.83,0,0,1-.78.87c-0.09,0-9.59.54-16.79,1.74a1.88,1.88,0,0,0-.64.24l-2,1.14a47.74,47.74,0,0,0-6.63,4.22A0.82,0.82,0,0,1,161.73,236Z" transform="translate(-34.83 -75)"/><path class="cls-19" d="M167.17,233.32a21.24,21.24,0,0,0-2.29,1.41,21.56,21.56,0,0,0-2.11,1.68,1.65,1.65,0,1,1-2.22-2.45l0.12-.1a24.66,24.66,0,0,1,2.6-1.7,23.58,23.58,0,0,1,2.8-1.37,1.37,1.37,0,0,1,1.16,2.49Z" transform="translate(-34.83 -75)"/><ellipse class="cls-19" cx="113.38" cy="217.78" rx="2.36" ry="4.35"/><polygon class="cls-19" points="113.38 213.43 110.5 213.84 112.67 214.97 113.38 213.43"/><polygon class="cls-19" points="113.38 222.13 111.02 222.43 114.7 220.11 113.38 222.13"/><ellipse class="cls-15" cx="111.02" cy="218.08" rx="2.36" ry="4.35"/><rect class="cls-19" x="111.21" y="211.35" width="2.14" height="2.38"/><ellipse class="cls-19" cx="169.53" cy="231.87" rx="2.36" ry="4.35"/><polygon class="cls-19" points="169.53 227.52 172.41 227.93 170.24 229.06 169.53 227.52"/><polygon class="cls-19" points="169.53 236.22 171.89 236.52 168.21 234.2 169.53 236.22"/><ellipse class="cls-15" cx="171.89" cy="232.17" rx="2.36" ry="4.35"/><rect class="cls-19" x="169.55" y="225.45" width="2.14" height="2.38"/><ellipse class="cls-19" cx="194.64" cy="207.89" rx="2.36" ry="4.35"/><polygon class="cls-19" points="194.64 203.54 197.51 203.95 195.35 205.08 194.64 203.54"/><polygon class="cls-19" points="194.64 212.24 197 212.54 193.32 210.22 194.64 212.24"/><ellipse class="cls-15" cx="197" cy="208.19" rx="2.36" ry="4.35"/><rect class="cls-19" x="194.66" y="201.46" width="2.14" height="2.38"/><ellipse class="cls-19" cx="121.08" cy="199.13" rx="1.87" ry="3.44"/><polygon class="cls-19" points="121.08 195.69 123.36 196.01 121.65 196.91 121.08 195.69"/><polygon class="cls-19" points="121.08 202.57 122.95 202.81 120.04 200.97 121.08 202.57"/><ellipse class="cls-15" cx="122.95" cy="199.37" rx="1.87" ry="3.44"/><rect class="cls-19" x="121.1" y="194.05" width="1.69" height="1.88"/><ellipse class="cls-19" cx="177.2" cy="197.61" rx="1.87" ry="3.44"/><polygon class="cls-19" points="177.2 194.17 179.48 194.5 177.77 195.39 177.2 194.17"/><polygon class="cls-19" points="177.2 201.05 179.07 201.29 176.16 199.46 177.2 201.05"/><ellipse class="cls-15" cx="179.07" cy="197.85" rx="1.87" ry="3.44"/><rect class="cls-19" x="177.22" y="192.53" width="1.69" height="1.88"/><path class="cls-19" d="M157.66,265.13l32.7,2.86a4.55,4.55,0,1,1-.79,9.06A5,5,0,0,1,189,277L156.92,270A2.48,2.48,0,0,1,157.66,265.13Z" transform="translate(-34.83 -75)"/><path class="cls-19" d="M212.33,268.58l-21.4,8.27a4.56,4.56,0,0,1-3.28-8.51,4.89,4.89,0,0,1,.79-0.23l22.54-4.3A2.49,2.49,0,0,1,212.33,268.58Z" transform="translate(-34.83 -75)"/><path class="cls-15" d="M189.68,252.67c-2.28,0-4.13-1.55-4.13-3.45V222.93c0-1.91,1.85-3.45,4.13-3.45s4.13,1.55,4.13,3.45v26.29C193.81,251.13,192,252.67,189.68,252.67Z" transform="translate(-34.83 -75)"/><path class="cls-15" d="M189.68,272.16c-3.19,0-5.78-2.17-5.78-4.84v-18.1c0-2.67,2.59-4.84,5.78-4.84s5.78,2.17,5.78,4.84v18.1C195.46,270,192.87,272.16,189.68,272.16Z" transform="translate(-34.83 -75)"/><path class="cls-6" d="M152,208.91s2,8.14,11.67,12.51c8.16,3.7,57.41,20.45,78.46-6.54C194.27,210.05,152,208.91,152,208.91Z" transform="translate(-34.83 -75)"/><path class="cls-7" d="M242.17,214.88c-2.77,3.32-9.37,4.76-17.29,4.54a72.66,72.66,0,0,1-16.52-2.48,9.43,9.43,0,0,0-2.63-.32c-15.49.28-36.42,1.79-46.8-1.35-2.87-.87-4.94-2.09-5.85-3.8-4.33-8-3.53-32.78,1.42-49.48,3.32-11.2,15.59-11.52,26.57-9.83,5.27,0.81,11.64,6.74,12.64,14.43,1.95,14.94,6.36,38.92,8,42.22,2.95,5.89,16.71,2.4,38.6,2.26A2.34,2.34,0,0,1,242.17,214.88Z" transform="translate(-34.83 -75)"/><path class="cls-20" d="M173.34,154.83a0.75,0.75,0,0,1,.15,1.46c-4.71,1.71-14.11,2.41-15.39,15.19-1.77,17.68-6.59,7.45-.27-10C161.34,154.49,169,154.29,173.34,154.83Z" transform="translate(-34.83 -75)"/><path class="cls-15" d="M146.64,283.51l41.67-15.36a4.55,4.55,0,1,1,3.14,8.53l-0.4.13-42.92,11.43A2.48,2.48,0,0,1,146.64,283.51Z" transform="translate(-34.83 -75)"/><path class="cls-15" d="M230.48,277.77L189.37,277a4.55,4.55,0,0,1,.17-9.09l0.46,0,40.83,4.88A2.48,2.48,0,0,1,230.48,277.77Z" transform="translate(-34.83 -75)"/><path class="cls-15" d="M204.08,301l-18.29-26.2a4.55,4.55,0,1,1,7.46-5.21,5,5,0,0,1,.3.5l14.76,28.34A2.48,2.48,0,0,1,204.08,301Z" transform="translate(-34.83 -75)"/><path class="cls-21" d="M141.32,101.3s4.56,0.84,6.78-.45,2.1-3.24,4.78-4.17,9.17-1.36,10.13,0,0.8,7.49-3.23,9.74a12.82,12.82,0,0,1-8.47,1.78c-1.4-.22-10.81,1-10.81,1Z" transform="translate(-34.83 -75)"/><path class="cls-19" d="M234.73,282.44s1.3,8.23,1.23,9.65-0.45,5.06,2.53,5.66a99.88,99.88,0,0,1,11.71,3c3.18,1.16,13.75,4.24,17.12,2.38s4.83-6,3.79-7.44-12.09-4.42-17.56-7.37-7.5-9.81-7.5-9.81Z" transform="translate(-34.83 -75)"/><path class="cls-2" d="M202.24,107.61l0-.11a5.91,5.91,0,0,0-3.14-3.83,9.69,9.69,0,0,0-1.93-.72l-1.19-.23c-0.56-.06-1.13-0.08-1.55-0.09a18.53,18.53,0,0,0-2.29.08c-1.38.07-2.61,0.22-3.85,0.37s-4.62.78-8.51,1.49c-2.1.41-4.32,0.81-6.35,1.23-2.45.48-4.6,0.92-6,1.2-2.89.64-.81,10.63,2.3,10.15l0.77-.09c1.9-.29,7.08-1,10.52-1.43,1.78-.27,3.06-0.42,3.17-0.44-1,1.15-10.39,9.37-10.48,9.5l-0.41.55c-1.8,2.91,1.52,6.55,4.59,8.82,2.86,2.1,7.7,10.39,8.52,4.66a18.85,18.85,0,0,1,3.55-8.19c2.82-3.81,6.16-8.69,8.25-11.81,1.07-1.56,1.78-2.7,2-3.06,0.4-.76.83-1.48,1.25-2.48a12.5,12.5,0,0,0,.63-1.74c0.08-.37.19-1,0.25-1.44A7.36,7.36,0,0,0,202.24,107.61Z" transform="translate(-34.83 -75)"/><path class="cls-22" d="M181,115.63c-3.44.45-8.62,1.14-10.52,1.43l2.32-10.23,0.58-1c2-.42,4.24-0.82,6.35-1.23,0,0,2.58,1,2.43,3.13C182,109.48,182.52,113.42,181,115.63Z" transform="translate(-34.83 -75)"/><path class="cls-3" d="M250.62,216.37c-4.08,2.61-8.21,5.21-12.13,8.11a13.32,13.32,0,0,0-1.13.86c-1.08.76-2.06,1.6-3,2.44a27.29,27.29,0,0,0-2.73,2.4L227.26,227l-20.85-15.17-26.54-3.48L183.14,196l10.36-8.19c1.66,0.76,3.39,2.47,5.07,5.49,0.56,0.09,18.35,7,27.75,10a154.67,154.67,0,0,1,14.87,5.59c0.72,0.35,1.44.67,2.37,1.18a21.84,21.84,0,0,1,3.42,2.16l1.27,1.1a14.61,14.61,0,0,1,1.4,1.6l0.62,0.86,0.29,0.45Z" transform="translate(-34.83 -75)"/><path class="cls-22" d="M198.22,118.71c-2.09,3.12-5.43,8-8.25,11.81a18.85,18.85,0,0,0-3.55,8.19c-0.81,5.72-5.66-2.56-8.52-4.66-3.07-2.26-6.39-5.9-4.59-8.82l0.41-.55S184.07,130.25,190,126C193.08,123.73,195.45,120.24,198.22,118.71Z" transform="translate(-34.83 -75)"/><path class="cls-23" d="M234.32,227.77a27.29,27.29,0,0,0-2.73,2.4l-25.18-18.33-26.54-3.48L183.14,196l10.36-8.19,5.07,5.49s-2,4.24.63,5.77,26.74,9.66,31.66,12.25C238.11,215.09,235.64,226.62,234.32,227.77Z" transform="translate(-34.83 -75)"/><path class="cls-3" d="M249.52,278.54s-13.25-45-15.55-52.85l-0.37-1.36s0.63-4.21-1.47-6.65c-1.24-1.38-10.74-5.54-13.46-6.93-5.31-2.56-24.44-10.29-29.4-12,3.26-1.82,7.2-4.46,5.77-6.73a3.35,3.35,0,0,0-.62-0.83c-3.13-3.35-13.25-7.37-35.45-11.45-6.1-.8-4.3,3.42-3.14,9.52a27.07,27.07,0,0,1,.42,8.39,16.2,16.2,0,0,0,.5,5.86c2,7.47,4.66,15.49,15,17,0,0,9.11,2.95,17.28,5.14,2.17,0.6,4.24,1.13,6.09,1.53,4.41,1,19.28,3.5,20,3.78l15.47,40.39v0l3.17,11,0.89,1.76C236.51,287.78,251.1,282.7,249.52,278.54Z" transform="translate(-34.83 -75)"/><path class="cls-24" d="M196.11,191.35L195,192,188,196.43s-14.36,4.23-23.81,3.48c-4.29-.34-6.38,1.5-7.4,3.59a16.2,16.2,0,0,1-.5-5.86,27.07,27.07,0,0,0-.42-8.39l26.31,0.67Z" transform="translate(-34.83 -75)"/><path class="cls-19" d="M178.29,104s6.39-4-.59-9.31-13.8-10-26.29-2.73c-6.06,3.54-5.08,11.11-4.92,13.43,0.41,6.32,5.62,11.6,6.82,12s1.6,2.39,1.6,2.39Z" transform="translate(-34.83 -75)"/><path class="cls-2" d="M197.68,192.48c-0.51,3.84-14,4.86-25.38,4.46h-0.11c-7.88-.25-14.73-1.16-15.54-2.25,0,0-2.7-16.2-3-17.73s-11-29.43-12.26-32.83c-0.05-.18-0.14-0.4-0.23-0.61a29.09,29.09,0,0,1-1.63-7.82c-0.09-4.88,2-9.64,11.08-9.47a47.34,47.34,0,0,1,11.24,2c14.45-7.18,18.44-1.49,20,.23,4.14,4.7,6.9,8.22,7.9,15,1.76,9.88,3.79,27.76,4.15,32C194,177.57,198.16,188.88,197.68,192.48Z" transform="translate(-34.83 -75)"/><path class="cls-21" d="M154.54,126.38c1-3.31.41-8.3-.58-11.47-1.11-3.69,14.2-4.46,15.19-.74a38.73,38.73,0,0,1,1.1,7.14,17.25,17.25,0,0,1,0,3.79,11.59,11.59,0,0,1,.93.82C181.16,135.12,154.69,134.46,154.54,126.38Z" transform="translate(-34.83 -75)"/><path class="cls-2" d="M150.6,126.26a0,0,0,0,1,0,0,229.14,229.14,0,0,1-17.07-15.59c2.48-.06,6.62-1.24,9.09-1.3,2.09,0,2.24-4.64.84-7.15a2.49,2.49,0,0,0-1.94-1.59l-19.41-2.37-0.45,0a1.92,1.92,0,0,0-.94-0.06c-0.38,0-.76,0-1.15.06a8.09,8.09,0,0,0-2,.56,7,7,0,0,0-3.46,3.09,7.19,7.19,0,0,0-.67,1.74c0,0.38-.09.76-0.1,1.14a7.54,7.54,0,0,0,.32,2.36,12.18,12.18,0,0,0,.75,1.92c0.49,1,.9,1.62,1.32,2.29,0.83,1.34,7.89,10.13,14.36,18.16a0.12,0.12,0,0,1,.07,0c3.79,4.74,7.43,9.21,9.48,11.75a18.44,18.44,0,0,1,1.47,2.27,18.24,18.24,0,0,1,.9,1.94c1.3,3.05,3.32,1.49,5.13-1.84C150.12,138.24,152.56,128.23,150.6,126.26Z" transform="translate(-34.83 -75)"/><path class="cls-25" d="M171.14,125.92c-0.32,1.36-2.4,3.17-6.34,2.7-7.08-.84-9.93-11.45-9.93-11.45l15.39,4.14a17.25,17.25,0,0,1,0,3.79A11.59,11.59,0,0,1,171.14,125.92Z" transform="translate(-34.83 -75)"/><path class="cls-21" d="M178.59,106.24c-1.77,14.45-5.32,21.18-12,19.83-5.76-1.8-10.72-5.05-12.63-12.29-6.22-10.28-3.22-17.83,6.36-19.71S179.41,94.82,178.59,106.24Z" transform="translate(-34.83 -75)"/><path class="cls-19" d="M178.47,102.54s-3.3,2.45-9.42.47c-5.41-1.75-6,4.1-7.07,6.72a2.26,2.26,0,0,1-1.17,1.15c-2.31,1.13-5.56,4.1-5.93,6.29-0.41,2.42-12.39-8.86-3.5-19S178.74,90.48,178.47,102.54Z" transform="translate(-34.83 -75)"/><path class="cls-19" d="M242.18,275.2s0.47,10.1-.14,12.2,1.52,4.18,5.91,4.56,11.43,4.57,13.77,5.65,8.09,0,9.37-1.9-0.16-3.66-2.6-4.58c-5.58-2.1-12.73-9.41-13.64-10.57-1.63-2.08-3-7.89-3-7.89Z" transform="translate(-34.83 -75)"/><path class="cls-21" d="M160.11,110.91c-0.62,1.77,1.89,3.73.45,4.57s-3.67,0-5-1.88-2.07-3.62.18-4.95C157.7,107.5,160.92,108.62,160.11,110.91Z" transform="translate(-34.83 -75)"/><path class="cls-3" d="M254.78,275.88c-0.13,1.38-3.78,2.36-5.26,2.66a18.88,18.88,0,0,1-6.14-.19,2.25,2.25,0,0,1-1.92-1.86c-1-7.22-5.42-38.1-7.14-48.71-0.13-.81-0.27-1.52-0.35-2.09a26.52,26.52,0,0,1,2.43-2.12c4.78-3.65,8.25-3.36,14.23-7.2l0.06,0.11,0.53,1a6.49,6.49,0,0,1,.38,2.16c0,1-.73,3.47-0.34,5.88C252.55,234.82,255,273.78,254.78,275.88Z" transform="translate(-34.83 -75)"/><path class="cls-23" d="M230.55,271.34L215.08,231c-0.69-.28-15.56-2.81-20-3.78-1.85-.4-3.92-0.92-6.09-1.53l0.15-.3s19.29,5,21.44,3.6c1.78,0.94,17.06-.85,17.06-0.85-1.07.34-9.08,2.58-11.42,2.73,10.15-.56,2.2,2.89,5.91,7.14,2.73,3.17,5,20.75,6.94,27.52C229.64,267.32,230.11,269.35,230.55,271.34Z" transform="translate(-34.83 -75)"/><path class="cls-23" d="M249.52,278.54a20.42,20.42,0,0,1-6.88-.32,1.32,1.32,0,0,1-1.09-1.09c-0.82-5.8-5.46-38.38-7.23-49.35-1.05-4.19,1.7-4.9,2.07-4.2,0.28,0.48.59,1.07,1,1.77,2.47,4.7,7,14.28,7.45,21.84,0.56,10.39,1.23,30.38,3.11,30.85C248.17,278.08,248.72,278.28,249.52,278.54Z" transform="translate(-34.83 -75)"/><path class="cls-22" d="M184.2,115.19s10-.51,12-4.57S190.45,115.16,184.2,115.19Z" transform="translate(-34.83 -75)"/><path class="cls-22" d="M142.59,109.34c-2.48.06-6.62,1.24-9.09,1.3,0,0-2.5-6-6.23-8.15a2.1,2.1,0,0,1-.28-0.2c1.75,0.91,8.34,4.9,10,5,2.84,0.09,5.36-1.26,6.4-5C144.83,104.7,144.69,109.31,142.59,109.34Z" transform="translate(-34.83 -75)"/><path class="cls-22" d="M172.19,196.94c-7.88-.25-14.73-1.16-15.54-2.25,0,0-2.7-16.2-3-17.73s-11-29.43-12.26-32.83c-0.05-.18-0.14-0.4-0.23-0.61a18.44,18.44,0,0,0-1.47-2.27c-2-2.54-5.68-7-9.48-11.75,0.6,0.37,5.31,3.22,9.32,6.2,2.65,2,5,4,5.58,5.37a8.8,8.8,0,0,0,2.08,2.54c3.74,3.65,8.54,9,8.4,11.74-0.19,3.42,4.34,13.11,3.88,18.73s0.3,16.17,1.83,18.65C162.3,194.47,168.45,196.1,172.19,196.94Z" transform="translate(-34.83 -75)"/><path class="cls-19" d="M267.55,152.36l47.95,2.88a2.29,2.29,0,0,0,2.42-2.28v-39.1a2.78,2.78,0,0,0-2.82-2.78l-49.33.73a0.85,0.85,0,0,0-.83.85v36.94A2.78,2.78,0,0,0,267.55,152.36Z" transform="translate(-34.83 -75)"/><polygon class="cls-19" points="260.33 93.86 269.64 91.58 248.16 90.29 243.73 92.46 260.33 93.86"/><path class="cls-15" d="M298.9,147.82H285.23l-8.85,15.53a2.76,2.76,0,0,0,2.18,4.11l16.6,1.4c-0.13,0-2.3-.61-1.64-3.32C294.94,159.71,298.37,149.41,298.9,147.82Z" transform="translate(-34.83 -75)"/><path class="cls-15" d="M264.71,152.36l48.06,2.88a2.18,2.18,0,0,0,2.31-2.18V113.85a2.78,2.78,0,0,0-2.82-2.78l-48,.71a2.18,2.18,0,0,0-2.15,2.18v35.62A2.78,2.78,0,0,0,264.71,152.36Z" transform="translate(-34.83 -75)"/><polygon class="cls-12" points="229.29 38.94 278.05 38.37 278.05 77.53 229.29 74.54 229.29 38.94"/><polygon class="cls-26" points="229.29 52.39 264.82 38.52 269.87 38.46 229.29 54.52 229.29 52.39"/><polygon class="cls-26" points="229.29 59.04 229.29 67.01 278.05 48.01 278.05 40.3 229.29 59.04"/><path class="cls-19" d="M322.59,179.13l-23.32-6.81a1.18,1.18,0,0,1-.66-1.47l30.88-3.26a5.55,5.55,0,0,1,2.23.16l23.8,5.85a0.93,0.93,0,0,1-.63,1.42l-30,4.27A5.54,5.54,0,0,1,322.59,179.13Z" transform="translate(-34.83 -75)"/><path class="cls-6" d="M322.57,178.21l-23.87-7a0.23,0.23,0,0,1,0-.44l30.74-4.13a5.54,5.54,0,0,1,2.23.16l23.78,6.75a0.23,0.23,0,0,1,0,.44l-30.57,4.35A5.55,5.55,0,0,1,322.57,178.21Z" transform="translate(-34.83 -75)"/><path class="cls-6" d="M297.32,170.06l-0.46-22.86a0.78,0.78,0,0,1,.67-1.05l30.57-2.28a1.35,1.35,0,0,1,1.34.81l0.69,20.75a0.89,0.89,0,0,1-.7,1.24l-30.83,4.14A1.19,1.19,0,0,1,297.32,170.06Z" transform="translate(-34.83 -75)"/><polygon class="cls-15" points="293.67 69.62 263.13 71.94 263.77 94.86 294.27 90.73 293.67 69.62"/><polygon class="cls-27" points="263.13 72.56 294.03 82.16 294.08 83.6 263.19 73.83 263.13 72.56"/><polygon class="cls-27" points="294.07 84.61 263.21 74.95 263.33 79.37 294.18 88.54 294.07 84.61"/><path class="cls-28" d="M313.46,174.72l-11.33-3.47a0.17,0.17,0,0,1,0-.34l27.54-3.53a4.25,4.25,0,0,1,1.71.12l11.25,3.31a0.17,0.17,0,0,1,0,.34l-27.41,3.7A4.24,4.24,0,0,1,313.46,174.72Z" transform="translate(-34.83 -75)"/><path class="cls-29" d="M333.12,176l-5.38-1.57a0.05,0.05,0,0,1,0-.1l6.92-.93a1.25,1.25,0,0,1,.5,0l5.36,1.52a0.05,0.05,0,0,1,0,.1l-6.89,1A1.25,1.25,0,0,1,333.12,176Z" transform="translate(-34.83 -75)"/><path class="cls-19" d="M363.5,273.82a15,15,0,0,0,.42,4.58c0.6,1.81,3.12,7.32-1.88,9.32-3.73,1.5-6.53-.27-9.19-2.35s-6.84-2.92-8.55-3.57c-1.87-.71-6.14-3.09-4.81-5.65,1.6-3.08,6.46-3.37,10.43-2.42,2.14,0.51,2.11-.74,1.94-1.87s-0.33-2,.85-2.06C356.12,269.68,363.5,273.82,363.5,273.82Z" transform="translate(-34.83 -75)"/><path class="cls-2" d="M346.17,223.92c0.05,0.28,4.21,45.28,5,48.23s12.35,4.58,12.9,1c0.88-5.62-1-36.57-.78-38.13l0.38,0.14c-5.74-6.43-11-12.24-14.73-19.27A8.48,8.48,0,0,0,346.17,223.92Z" transform="translate(-34.83 -75)"/><path class="cls-14" d="M378.26,301.06h0.17a2.48,2.48,0,0,0,2.44-2.52L380,228.35a2.48,2.48,0,1,0-5,.07l0.91,70.19A2.48,2.48,0,0,0,378.26,301.06Z" transform="translate(-34.83 -75)"/><polygon class="cls-14" points="387.13 176.72 387.69 166.15 340.82 155.82 338.57 166.01 387.13 176.72"/><polygon class="cls-30" points="387.13 176.72 387.69 166.15 340.82 155.82 338.57 166.01 387.13 176.72"/><path class="cls-14" d="M421.34,313.1h0.23a2.61,2.61,0,0,0,2.58-2.64L422.93,194.8a2.58,2.58,0,0,0-2.64-2.58,2.61,2.61,0,0,0-2.58,2.64l1.22,115.68A2.61,2.61,0,0,0,421.34,313.1Z" transform="translate(-34.83 -75)"/><path class="cls-30" d="M378.26,301.06h0.17a2.48,2.48,0,0,0,2.44-2.52L380,228.35a2.48,2.48,0,1,0-5,.07l0.91,70.19A2.48,2.48,0,0,0,378.26,301.06Z" transform="translate(-34.83 -75)"/><path class="cls-3" d="M325.54,240.46c0.61,1,8,2.92,15.93,5.17,7.7,2.17,16,4.64,19.23,6.71,7.9,5.09,56.16-1.48,57.17-11.49a8.42,8.42,0,0,0-.38-4.09,7.31,7.31,0,0,0-1.8-2.86l0,0c-8.47-8.55-37.61-3.61-37.61-3.61C352.13,232.84,312.45,230.81,325.54,240.46Z" transform="translate(-34.83 -75)"/><path class="cls-31" d="M325.54,236.77c0,1.5,7.3,5.11,15.93,8.86,7.7,2.17,16,4.64,19.23,6.71,7.9,5.09,56.16-1.48,57.17-11.49a8.42,8.42,0,0,0-.38-4.09c0.12,1.38-.81,3.1-4.66,4.72-8.45,3.57-30.3,7.72-37.39,7.68s-9.65-4.29-23.53-7.64C340.68,238.8,325.52,233.08,325.54,236.77Z" transform="translate(-34.83 -75)"/><path class="cls-2" d="M386.41,210.59c-10.31,1.26-34,3.78-34.22,3.83a7.68,7.68,0,0,0-3.64,1.82c3.4,6.4,8.21,11.69,13.45,17.54,7,2.58,14,5.06,21.06,7.54,0,0,4.72,1.09,7.2.78A15.88,15.88,0,1,0,386.41,210.59Z" transform="translate(-34.83 -75)"/><path class="cls-21" d="M357.63,167.39s-5.06.29-6.42-.78a24.11,24.11,0,0,0-5.57-2.52c-0.84-.28-2.95-1-3.74-0.56a9.83,9.83,0,0,0-1.94,1.61c-0.73.47-4.63,0.7-5.09,1.12s-4,2.66-4,2.66,0,1.35,3.35-.2,7.78,1.28,2.4,1.72c-1.91.16-1.05,2.14,0.47,2s5.26,1.32,7.58,0,7.6,0.12,8.14.14,4,1,4,1Z" transform="translate(-34.83 -75)"/><path class="cls-12" d="M353.67,164.61c-1.82-.8-3-0.17-2.29.26L349.6,173c1.89,1.2,26.22,9.91,28,9.87h0.81l0.19,0a69.6,69.6,0,0,0-.4-16.06C372.61,166,354.83,165.11,353.67,164.61Z" transform="translate(-34.83 -75)"/><path class="cls-32" d="M353.67,164.61c-1.82-.8-3-0.17-2.29.26L349.6,173c1.89,1.2,26.22,9.91,28,9.87h0.81l0.19,0a69.6,69.6,0,0,0-.4-16.06C372.61,166,354.83,165.11,353.67,164.61Z" transform="translate(-34.83 -75)"/><path class="cls-12" d="M411.92,150.1c-1.78-3.82-6.41-2.92-9.83-.16a7.37,7.37,0,0,0-1,1c-1.73,2.06-20,15.8-21.29,16.12a6.29,6.29,0,0,0-1.62-.32,69.6,69.6,0,0,1,.4,16.06A34.93,34.93,0,0,0,390,180C393.35,178.56,418.63,164.53,411.92,150.1Z" transform="translate(-34.83 -75)"/><path class="cls-21" d="M400.11,147.45s-18.47,10.22-16.93,7.11a19.79,19.79,0,0,0-.09-5.9,47.47,47.47,0,0,0-1.3-6.79c-0.28-1-.59-2.06-1-3.07l15.24-5.84C397.64,137.68,398.45,141.93,400.11,147.45Z" transform="translate(-34.83 -75)"/><path class="cls-33" d="M387.12,143.18a6.19,6.19,0,0,1-4,5.48,47.47,47.47,0,0,0-1.3-6.79Z" transform="translate(-34.83 -75)"/><path class="cls-9" d="M375.54,213.18c-9.39-2.57-39.12,4.79-47.15,5.7a14.83,14.83,0,0,0-3.92.93,8.45,8.45,0,0,0-4.49,4.07c6.44,5.9,11.09,7.7,15.87,15.48,1.79,0.22,14.67,1.23,19,1.56s21.87,5.47,27.77,3.73c5.47-1.61,9.83-5.25,11.65-10.25v-0.06a15.48,15.48,0,0,0,.93-6,53.74,53.74,0,0,1,.5-8.4C398.76,195.37,383.59,215.39,375.54,213.18Z" transform="translate(-34.83 -75)"/><path class="cls-12" d="M391.94,149.76c-8,3.48-14.93,5.5-17.18,9.24a30.31,30.31,0,0,0-3.59,14.63c0.08,8.88,3.78,16.5,2.22,27.18,0,0.11,0,.24,0,0.37,1.09,0.51,2.16,1,3.21,1.51-1-.5-2.12-1-3.21-1.51-0.46,4-3.62,12.6-3.62,12.6-4.7,12.63,36.65,13.15,34.43,4.74,0.21-.25.42-0.5,0.61-0.77,3-3.92,5.16-9.32,8.23-23.1,3.23-11.73,3.27-34.27,2.89-36.4C412.75,140.28,398.77,146.8,391.94,149.76Z" transform="translate(-34.83 -75)"/><path class="cls-34" d="M400.68,217.64c-6,2.81-15.58,1.38-13.17,1.1s13.17-1.1,4.28-2.58-15.36-2.54-14.68-8.1c0.51-4.12,2.86-9.83,5.92-14.93,3.36-5.6,3.21-18.44,3.21-18.44l-15.08-1.06c0.08,8.88,3.78,16.5,2.22,27.18,0,0.11,0,.24,0,0.37,1.09,0.51,2.16,1,3.21,1.51-1-.5-2.12-1-3.21-1.51-0.46,4-3.62,12.6-3.62,12.6-4.7,12.63,36.65,13.15,34.43,4.74,0.21-.25.42-0.5,0.61-0.77C403.91,217,402.58,216.75,400.68,217.64Z" transform="translate(-34.83 -75)"/><path class="cls-12" d="M378.9,183c2.31-5.14,6.82-14.84,0-24.3-2.78-3.88-10,3.77-11.36,9.23,0,0-6.77,25.68-10.71,27.3a25.19,25.19,0,0,0,10,10.63,27.51,27.51,0,0,0,5.24-3.31C373.86,200.69,377.74,185.57,378.9,183Z" transform="translate(-34.83 -75)"/><path class="cls-35" d="M370,238c-8.61-1.27-34.86-7.37-40.84-6.52,2.17,1.66,6.67,7.89,6.67,7.89,1.79,0.21,14.67,1.22,19,1.56s20.53,5.67,27.77,3.72a16.68,16.68,0,0,0,11.64-10.25v0C393.81,234.76,387.34,240.56,370,238Z" transform="translate(-34.83 -75)"/><path class="cls-3" d="M382.33,153.76s0.21-2.51,1-3,8.16-3,11.67-5.21c5.59-3.51,6.47-1.73,7,.66S382.33,153.76,382.33,153.76Z" transform="translate(-34.83 -75)"/><path class="cls-21" d="M400.56,130.31c-3.12,8.66-11.16,17.26-24.82,17-9.37-.18-8.35-15-5.48-26.45,2.21-8.82,12.08-15.52,20.41-11.23S404.5,119.39,400.56,130.31Z" transform="translate(-34.83 -75)"/><path class="cls-15" d="M388.71,106.68s-12.07-2.37-16.16,6.79c-3.93,8.8,7.49,17,9.11,17.88s4.91,8.9,6.51,9.94c6.79,0.9,7.5-.06,11.38-5.37s5.27-8.43,6-13.83S398.46,105,388.71,106.68Z" transform="translate(-34.83 -75)"/><path class="cls-21" d="M385.38,133.33c-1.24,2.06-3.31,3.08-4.62,2.29s0.1-3-.13-5.15c-0.26-2.39,2.63-3.49,4.62-2.29S386.62,131.28,385.38,133.33Z" transform="translate(-34.83 -75)"/><path class="cls-15" d="M327.84,278.17s-0.21,7.13.22,9.29,1.33,5.81,0,6.61-4.27,2.37-7.06,1.82-5.78-3.16-9.61-3.7-10.61-7.28-7.88-10.26,6.26-4.21,8.45-3.37,2.86,1.33,4.94.76,1.2-7.4,1.2-7.4Z" transform="translate(-34.83 -75)"/><path class="cls-9" d="M317.85,230.81s-1.94,41.4-1.9,46.31a1.48,1.48,0,0,0,0,.28c1,5.53,11.94,4.88,13,1.15,1-3.52,6-30.91,6.52-33.68a1.92,1.92,0,0,1,0-.23,29.38,29.38,0,0,0,1.69-4.46c-2.6-8.75-12-9.59-16.68-17A11.08,11.08,0,0,0,317.85,230.81Z" transform="translate(-34.83 -75)"/><path class="cls-35" d="M328,230l-0.22-.27c1.76,2.09,4.92,9,6,11.73,1,2.43-2.18,7-3.59,9.2-5.35,8.45-5.73,23.56-8.1,25.81-2.59,2.46-5.26,1.81-6.07.89,1,5.53,11.94,4.88,13,1.15,1-3.52,6-30.91,6.52-33.68,0-.16,1.72-4.69,1.72-4.69S332.54,232.43,328,230Z" transform="translate(-34.83 -75)"/><path class="cls-21" d="M339.25,207.82s-2.27,1.41-3.59,1.38a36.53,36.53,0,0,0-7.92,1.28c-1.74.64-2.4,7-2.16,8.34s4.34,5.6,4.93,5.85,2.73-.17,3-1.41-0.08-4.83.37-5.09,1.74,0,3.57-1.15,7.1-4.08,7.1-4.08Z" transform="translate(-34.83 -75)"/><path class="cls-12" d="M357.11,195.48c-4,2.42-17.34,11.09-18.1,11.54-2.58.94-.31,10.93,3.2,9.11,0.43-.14,20.63-8.61,21.54-8.88l0.73-.24a6.83,6.83,0,0,0,.74-0.32,9.08,9.08,0,0,0,.8-0.43c0.27-.16.5-0.31,0.72-0.46C362.67,203.17,359,200,357.11,195.48Z" transform="translate(-34.83 -75)"/><path class="cls-14" d="M366.81,323.51a2.61,2.61,0,0,0,2.58-2.61l-0.11-121.78a2.61,2.61,0,0,0-2.61-2.61,2.63,2.63,0,0,0-2.61,2.61l0.11,121.78a2.61,2.61,0,0,0,2.61,2.61h0Z" transform="translate(-34.83 -75)"/><rect class="cls-14" x="340.28" y="225.68" width="10.43" height="44.56" transform="translate(-23.27 436.28) rotate(-73.92)"/><path class="cls-14" d="M325.08,307.6a2.61,2.61,0,0,0,2.43-2.6l-0.07-70.9a2.61,2.61,0,0,0-5.22,0l0.07,70.9a2.61,2.61,0,0,0,2.61,2.61h0.18Z" transform="translate(-34.83 -75)"/><path class="cls-36" d="M364.16,247.91v10.86l-5.68-1.64S363.38,255.39,364.16,247.91Z" transform="translate(-34.83 -75)"/><path class="cls-36" d="M327.51,237.34l-0.06,11,4.13,1.05A29.33,29.33,0,0,1,327.51,237.34Z" transform="translate(-34.83 -75)"/><path class="cls-36" d="M420.29,192.22a2.46,2.46,0,0,1,.24,0,2.65,2.65,0,0,0-1.23,2.24l1,118.17c0,0.05,0,.1,0,0.15a2.6,2.6,0,0,1-1.43-2.29l-1.22-115.68A2.61,2.61,0,0,1,420.29,192.22Z" transform="translate(-34.83 -75)"/><polygon class="cls-14" points="384.13 171.47 333.86 180.67 333.86 190.41 384.29 180.45 384.13 171.47"/><path class="cls-36" d="M419,246.46l0.17,9-5.67,1.21S419.51,252.27,419,246.46Z" transform="translate(-34.83 -75)"/><path class="cls-14" d="M382.93,214.43c18.3,0,32.74-3.78,35.63-5.94,0-1.71,0-7.3,0-7.3-0.19.07-20.48,6.88-51,4.31l0.78,8.3C373.54,214.25,378.41,214.43,382.93,214.43Z" transform="translate(-34.83 -75)"/><path class="cls-14" d="M381.67,229.5c25.66,0.14,36.35-4.47,37.12-4.73l0-7.2c-0.21.07-14.1,6-51.76,4.86l-0.65,6.93C372.14,229.81,376.67,229.5,381.67,229.5Z" transform="translate(-34.83 -75)"/><polygon class="cls-14" points="384.13 171.47 383.46 171.29 334.5 180.29 334.5 180.55 384.13 171.47"/><polygon class="cls-37" points="384.13 171.47 383.46 171.29 334.5 180.29 334.5 180.55 384.13 171.47"/></g></g></svg>